<?xml version="1.0" encoding="UTF-8"?>
<svg version="1.1" xmlns="http://www.w3.org/2000/svg" width="210" height="210">
<path d="M0 0 C1.50563031 -0.01140751 3.0112239 -0.03167643 4.51660156 -0.06152344 C30.53749626 -0.57590667 52.0539886 8.80735663 71.9753418 25.29516602 C72.89573242 25.99254883 73.81612305 26.68993164 74.7644043 27.40844727 C75.49401367 28.03106445 76.22362305 28.65368164 76.9753418 29.29516602 C76.9753418 29.95516602 76.9753418 30.61516602 76.9753418 31.29516602 C77.9653418 31.62516602 78.9553418 31.95516602 79.9753418 32.29516602 C94.77863415 47.65645386 102.97746648 67.70395872 106.9753418 88.29516602 C107.16741211 89.23875977 107.35948242 90.18235352 107.55737305 91.15454102 C111.38638079 119.92577679 103.13934189 147.78625671 85.86987305 170.83422852 C85.24467773 171.64633789 84.61948242 172.45844727 83.9753418 173.29516602 C83.46358398 173.96290039 82.95182617 174.63063477 82.42456055 175.31860352 C81.33196091 176.69160483 80.16260356 178.00314586 78.9753418 179.29516602 C78.3153418 179.29516602 77.6553418 179.29516602 76.9753418 179.29516602 C76.6453418 180.28516602 76.3153418 181.27516602 75.9753418 182.29516602 C73.92968331 184.12502527 71.89645279 185.8142812 69.7253418 187.48266602 C69.09418457 187.96952881 68.46302734 188.4563916 67.81274414 188.95800781 C49.06228511 203.20938718 29.02738332 210.88170701 5.34716797 210.74121094 C3.17472933 210.73271252 1.00494427 210.76156848 -1.16723633 210.79321289 C-28.39370315 210.9277861 -51.96315209 199.12770508 -71.0246582 180.29516602 C-71.73879883 179.65321289 -72.45293945 179.01125977 -73.1887207 178.34985352 C-84.0094255 168.39135628 -91.0190882 154.94031138 -96.0246582 141.29516602 C-96.28150391 140.63226563 -96.53834961 139.96936523 -96.80297852 139.28637695 C-104.68688223 118.24576614 -103.92000654 90.17385153 -96.0246582 69.29516602 C-95.65211914 68.21493164 -95.27958008 67.13469727 -94.89575195 66.02172852 C-89.6596494 52.11960257 -81.37161496 40.76622421 -71.0246582 30.29516602 C-70.38141602 29.57973633 -69.73817383 28.86430664 -69.07543945 28.12719727 C-51.58652555 9.1208071 -25.19614175 0.13217118 0 0 Z " fill="#1E62A5" transform="translate(101.024658203125,-0.295166015625)"/>
<path d="M0 0 C1.65225586 -0.00580078 1.65225586 -0.00580078 3.33789062 -0.01171875 C4.93987305 -0.00978516 4.93987305 -0.00978516 6.57421875 -0.0078125 C7.53287842 -0.00668457 8.49153809 -0.00555664 9.47924805 -0.00439453 C12.48913021 0.1330667 15.35266347 0.57401463 18.3125 1.125 C18.3125 1.785 18.3125 2.445 18.3125 3.125 C16.6953125 4.53515625 16.6953125 4.53515625 14.4375 6.1875 C0.00181625 17.16133483 -11.85933231 29.64049694 -17.6875 47.125 C-18.6695225 60.67691047 -16.74387943 70.60844099 -10.25 82.6875 C-8.6875 86.125 -8.6875 86.125 -9.37890625 88.26171875 C-11.18174627 90.82874767 -13.22493812 91.20779164 -16.21484375 91.8046875 C-30.1375862 93.60826551 -38.12204582 89.31254778 -49.57421875 82.02734375 C-55.7713183 78.24065933 -60.10438099 76.53960739 -67.3125 76.5625 C-68.10575684 76.56491699 -68.89901367 76.56733398 -69.71630859 76.56982422 C-79.00577236 76.8579426 -85.66459097 80.6824546 -92.875 86.3125 C-99.65134884 91.60305104 -106.81189432 92.80360602 -115.31640625 92.61328125 C-120.98469661 91.79226584 -126.107289 89.56805517 -130.6875 86.125 C-131.48095703 84.26489258 -131.48095703 84.26489258 -131.6875 82.125 C-130.75048828 80.19311523 -130.75048828 80.19311523 -129.2578125 78.18359375 C-128.71415039 77.44044922 -128.17048828 76.69730469 -127.61035156 75.93164062 C-127.01706055 75.14982422 -126.42376953 74.36800781 -125.8125 73.5625 C-124.9148291 72.35303711 -124.9148291 72.35303711 -123.99902344 71.11914062 C-119.40562228 64.96994981 -114.69354078 58.94510723 -109.6875 53.125 C-109.00816406 52.32320312 -108.32882813 51.52140625 -107.62890625 50.6953125 C-91.84140513 32.56141213 -72.52422729 17.38019156 -49.72265625 9.23046875 C-46.60662756 8.13880106 -46.60662756 8.13880106 -43.36328125 6.62109375 C-39.21840355 4.93407126 -35.17715932 3.92628593 -30.8125 3 C-30.06097656 2.83113281 -29.30945313 2.66226563 -28.53515625 2.48828125 C-18.99342368 0.40972201 -9.75407022 -0.03460936 0 0 Z " fill="#FCFDFE" transform="translate(165.6875,49.875)"/>
<path d="M0 0 C5.39310629 3.22589961 9.00354646 4.30087188 15.3203125 4.2734375 C16.50496094 4.27859375 17.68960938 4.28375 18.91015625 4.2890625 C23.89296687 3.90792513 27.8890466 2.53572923 32.0703125 -0.1640625 C33.1634375 -0.7621875 34.2565625 -1.3603125 35.3828125 -1.9765625 C36.3728125 -1.6465625 37.3628125 -1.3165625 38.3828125 -0.9765625 C38.1875 0.85546875 38.1875 0.85546875 37.3828125 3.0234375 C35.203125 4.47265625 35.203125 4.47265625 32.5078125 5.7109375 C31.62351563 6.12730469 30.73921875 6.54367188 29.828125 6.97265625 C21.73397567 10.45081307 9.93568187 10.51002146 1.65625 7.2109375 C-2.55834223 5.00950101 -6.54138962 2.42393813 -10.56640625 -0.1015625 C-18.92048952 -5.23595426 -26.76719099 -6.39520347 -36.6171875 -4.9765625 C-41.01362859 -3.14940363 -44.74936575 -0.73274363 -48.6171875 2.0234375 C-58.36719467 8.64641534 -68.02394161 11.70472802 -79.890625 9.625 C-86.94298254 7.66459736 -92.72412387 3.22137284 -98.6171875 -0.9765625 C-98.2871875 -2.2965625 -97.9571875 -3.6165625 -97.6171875 -4.9765625 C-94.13073059 -4.32285183 -91.61430726 -2.90769357 -88.6171875 -1.0390625 C-86.95641193 -0.00867278 -85.29003243 1.01276035 -83.6171875 2.0234375 C-82.98167969 2.41015625 -82.34617187 2.796875 -81.69140625 3.1953125 C-75.30098037 5.74666897 -66.46665292 4.69934035 -60.125 2.27734375 C-55.97936448 0.20452599 -52.0793005 -2.26914551 -48.13427734 -4.69677734 C-30.48665541 -15.45600492 -16.44993261 -10.33713765 0 0 Z " fill="#EDF2F7" transform="translate(126.6171875,147.9765625)"/>
</svg>
